<?xml version="1.0" encoding="UTF-8"?>
<!DOCTYPE svg PUBLIC "-//W3C//DTD SVG 1.1//EN" "http://www.w3.org/Graphics/SVG/1.1/DTD/svg11.dtd">
<svg xmlns="http://www.w3.org/2000/svg" version="1.1" width="512px" height="512px" style="shape-rendering:geometricPrecision; text-rendering:geometricPrecision; image-rendering:optimizeQuality; fill-rule:evenodd; clip-rule:evenodd" xmlns:xlink="http://www.w3.org/1999/xlink">
<g><path style="opacity:0.964" fill="#000000" d="M 142.5,156.5 C 169.5,156.5 196.5,156.5 223.5,156.5C 223.5,165.167 223.5,173.833 223.5,182.5C 232.085,182.183 240.585,182.517 249,183.5C 249.667,236.833 249.667,290.167 249,343.5C 239.863,344.823 230.697,344.823 221.5,343.5C 220.5,326.179 220.167,308.846 220.5,291.5C 195.167,291.5 169.833,291.5 144.5,291.5C 144.833,308.846 144.5,326.179 143.5,343.5C 134.548,344.639 125.548,344.805 116.5,344C 116,343.5 115.5,343 115,342.5C 114.333,289.833 114.333,237.167 115,184.5C 115.5,184 116,183.5 116.5,183C 124.827,182.5 133.16,182.334 141.5,182.5C 141.197,173.749 141.53,165.082 142.5,156.5 Z M 144.5,185.5 C 169.833,185.5 195.167,185.5 220.5,185.5C 220.5,210.833 220.5,236.167 220.5,261.5C 195.167,261.5 169.833,261.5 144.5,261.5C 144.5,236.167 144.5,210.833 144.5,185.5 Z"/></g>
<g><path style="opacity:0.975" fill="#000000" d="M 268.5,156.5 C 295.833,156.5 323.167,156.5 350.5,156.5C 350.5,165.167 350.5,173.833 350.5,182.5C 358.84,182.334 367.173,182.5 375.5,183C 376.483,191.415 376.817,199.915 376.5,208.5C 384.84,208.334 393.173,208.5 401.5,209C 402,209.5 402.5,210 403,210.5C 403.667,236.833 403.667,263.167 403,289.5C 402.5,290 402,290.5 401.5,291C 393.173,291.5 384.84,291.666 376.5,291.5C 376.5,300.167 376.5,308.833 376.5,317.5C 367.833,317.5 359.167,317.5 350.5,317.5C 350.5,326.167 350.5,334.833 350.5,343.5C 323.167,343.5 295.833,343.5 268.5,343.5C 268.5,281.167 268.5,218.833 268.5,156.5 Z M 297.5,185.5 C 314.167,185.5 330.833,185.5 347.5,185.5C 347.5,194.167 347.5,202.833 347.5,211.5C 356.167,211.5 364.833,211.5 373.5,211.5C 373.5,237.167 373.5,262.833 373.5,288.5C 364.833,288.5 356.167,288.5 347.5,288.5C 347.5,297.167 347.5,305.833 347.5,314.5C 330.833,314.5 314.167,314.5 297.5,314.5C 297.5,271.5 297.5,228.5 297.5,185.5 Z"/></g>
</svg>
